<svg width="30" height="30" viewBox="0 0 30 30" fill="none" xmlns="http://www.w3.org/2000/svg">
<path d="M1.78857 16.9946L1.85735 16.7445L2.36381 14.8562C2.99532 12.5115 5.40258 11.1234 7.7473 11.7486L18.3267 14.5811C18.4268 14.6061 18.5268 14.5311 18.5268 14.431V8.7599C18.5268 8.54106 18.383 8.34723 18.1704 8.29096L10.5297 6.15256C8.71646 5.6461 7.65351 3.76407 8.15372 1.94456L8.61642 0L11.9741 0.537724L24.398 2.91371C26.5364 3.45144 27.3242 5.12088 27.3117 7.39683V27.0488C27.3117 27.1113 27.3492 27.1676 27.4055 27.1926C27.937 27.4239 28.2871 27.9491 28.2871 28.5306V28.9246C28.2871 29.5186 27.8057 30 27.2117 30H18.483C17.9578 30 17.5389 29.5748 17.5389 29.0559V28.5369C17.5389 27.9491 17.889 27.4302 18.4205 27.1988C18.4768 27.1738 18.5143 27.1175 18.5143 27.055V21.8403C18.5143 21.7716 18.4643 21.709 18.3955 21.6903L9.49178 19.308C9.36673 19.2768 9.24167 19.3456 9.21041 19.4706L9.07285 19.9958C8.90403 20.6336 8.24126 21.0088 7.60975 20.8337L7.35339 20.7649L3.57681 19.752C2.79524 19.5394 2.33255 18.7391 2.53888 17.9575L2.60766 17.7074C2.63892 17.5823 2.57014 17.4573 2.44509 17.426L1.93863 17.2885C1.82609 17.2384 1.75105 17.1134 1.78857 16.9946ZM24.4418 12.3176H21.0528C20.9653 12.3176 20.8903 12.3927 20.8903 12.4802V26.2922C20.8903 26.7799 21.2842 27.1801 21.7781 27.1801H24.0291C24.6794 27.1801 25.2046 26.6549 25.2046 26.0046V13.0742C25.1983 12.6553 24.8607 12.3176 24.4418 12.3176ZM20.709 7.97832V9.31638C20.709 9.91663 21.2029 10.3981 21.8032 10.3856L24.1354 10.3356C24.6043 10.3231 24.9795 9.94164 24.9795 9.4727V6.98416C24.9795 6.97791 24.9795 6.97166 24.9795 6.9654C24.8294 5.73364 23.9415 5.26469 22.9161 4.98333L10.7048 2.53856L10.661 2.64485L10.6485 2.83243C10.661 2.94498 10.6423 3.18258 10.686 3.28887C11.1362 4.25802 11.23 4.15173 11.9991 4.39558C12.0053 4.39558 12.0053 4.39558 12.0116 4.39558L17.4013 5.73364C20.165 6.40892 20.5714 6.92163 20.7027 7.96582C20.709 7.96582 20.709 7.97207 20.709 7.97832ZM18.5456 18.8141L18.5893 16.4193C18.5893 16.3443 18.5831 16.5194 18.5143 16.4944L7.77857 13.6932C7.77231 13.6932 7.82233 13.7057 7.77857 13.6932C5.85276 13.193 4.92738 14.0246 4.621 14.8937C4.55222 15.0875 4.65852 15.494 5.02117 15.6128L18.3455 18.9642C18.4455 18.9954 18.5393 18.9204 18.5456 18.8141Z" fill="#F04137"/>
</svg>
