<svg xmlns="http://www.w3.org/2000/svg" width="16" height="30" viewBox="0 0 16 30"><g><g><path fill="#f04137" d="M12.664 14.872a1.16 1.16 0 0 0-1.147-1.172 1.16 1.16 0 0 0-1.147 1.172 1.16 1.16 0 0 0 1.147 1.171c.633 0 1.147-.537 1.147-1.171z"/></g><g><path fill="#f04137" d="M13.395 0C14.83 0 16 1.196 16 2.66v24.68c0 1.464-1.171 2.66-2.605 2.66H2.605C1.17 30 0 28.804 0 27.34V0zM2.306 26.851c0 .44.347.793.777.793h9.834c.43 0 .777-.354.777-.793V3.137a.784.784 0 0 0-.777-.794H2.294c0 5.798 0 18.161.012 24.508z"/></g></g></svg>