<svg xmlns="http://www.w3.org/2000/svg" width="30" height="30" viewBox="0 0 30 30"><g><g><path fill="#f04137" d="M11.248 0c.69 0 1.249.56 1.249 1.25v4.997c0 .69-.56 1.25-1.249 1.25H1.261a1.25 1.25 0 0 1-1.248-1.25V1.25C.013.56.573 0 1.261 0zm12.484 14.056c0 .521-.416.938-.936.938a.933.933 0 0 1-.936-.938c0-.52.416-.937.936-.937.507 0 .936.417.936.937zm-3.12 0c0 .521-.417.938-.937.938a.933.933 0 0 1-.936-.938c0-.52.416-.937.936-.937s.936.417.936.937zm5.617 5.935a3.748 3.748 0 0 1-3.745 3.749 3.748 3.748 0 0 1 0-7.497 3.74 3.74 0 0 1 3.745 3.748zm-2.497 0a1.25 1.25 0 1 0-2.498 0 1.25 1.25 0 0 0 2.498 0zM7.503 11.427c0 .586.481 1.068 1.04 1.068h.313c.91 0 1.677.377 2.236 1.093.56.716.742 1.562.52 2.434l-.39 1.549c-.338 1.327-1.73 2.42-3.108 2.42H7.49v8.929c0 .585-.48 1.067-1.066 1.067h-.377A1.072 1.072 0 0 1 4.98 28.92V19.99h-.625c-1.365 0-2.757-1.093-3.095-2.42L0 12.494h3.927c.585 0 1.066-.482 1.066-1.068v-.377c0-.586.482-1.067 1.067-1.067h.377c.585 0 1.066.481 1.066 1.067zm1.47 4.881c.078-.325.013-.65-.195-.911a1.035 1.035 0 0 0-.833-.404H3.212l.494 1.966c.052.221.455.533.676.533h3.745c.221 0 .625-.312.677-.533zm6.02-7.549h12.172A2.843 2.843 0 0 1 30 11.597v17.336c0 .585-.481 1.067-1.066 1.067h-.377a1.072 1.072 0 0 1-1.067-1.067v-.378c0-.585-.48-1.067-1.066-1.067h-8.92v1.432c0 .585-.482 1.067-1.067 1.067h-.377a1.072 1.072 0 0 1-1.066-1.067zm11.418 16.217c.585 0 1.066-.481 1.066-1.067V12.286c0-.585-.48-1.067-1.066-1.067h-8.92v12.677c0 .586.48 1.067 1.066 1.067h7.854zM8.934 4.998c.585 0 1.066-.482 1.053-1.054v-.378c0-.586-.481-1.067-1.066-1.067H2.497V3.93c0 .585.48 1.067 1.066 1.067z"/></g></g></svg>