<svg width="30" height="30" viewBox="0 0 30 30" fill="none" xmlns="http://www.w3.org/2000/svg">
<path d="M25.2598 5.50195H15.0117V4.75781C15.0117 2.49023 13.1836 0.644531 10.9336 0.644531H4.72266C2.47266 0.644531 0.644531 2.49023 0.644531 4.75781V25.2422C0.644531 27.5098 2.47266 29.3555 4.72266 29.3555H10.9336C13.1836 29.3555 15.0117 27.5098 15.0117 25.2422V13.7285H25.2598C27.5156 13.7285 29.3555 11.8887 29.3555 9.59766C29.3555 7.3418 27.5156 5.50195 25.2598 5.50195ZM12.6211 25.2422C12.6211 26.1914 11.8652 26.959 10.9336 26.959H4.72266C3.79102 26.959 3.03516 26.1855 3.03516 25.2422V4.75781C3.03516 3.80859 3.79102 3.04102 4.72266 3.04102H10.9336C11.8652 3.04102 12.6211 3.81445 12.6211 4.75781V5.50781H9.99023C7.73438 5.50781 5.89453 7.34766 5.89453 9.63867C5.89453 11.8945 7.73438 13.7344 9.99023 13.7344H12.6211V25.2422ZM25.2598 11.3379H9.99023C9.05273 11.3379 8.28516 10.5762 8.28516 9.60352C8.28516 8.66602 9.04688 7.89844 9.99023 7.89844H25.2598C26.1973 7.89844 26.9648 8.66016 26.9648 9.63281C26.9648 10.5703 26.1973 11.3379 25.2598 11.3379Z" fill="#F04137"/>
<path d="M6.05274 16.9453C5.39063 16.9453 4.85742 17.4785 4.85742 18.1406C4.85742 18.8027 5.39063 19.3359 6.05274 19.3359H6.58594V23.0742C6.58594 23.7363 7.11914 24.2695 7.78125 24.2695C8.44336 24.2695 8.97656 23.7363 8.97656 23.0742V19.3359H9.59766C10.2598 19.3359 10.793 18.8027 10.793 18.1406C10.793 17.4785 10.2598 16.9453 9.59766 16.9453H6.05274Z" fill="#F04137"/>
</svg>
