<svg xmlns="http://www.w3.org/2000/svg" width="30" height="30" viewBox="0 0 30 30"><g><g><path fill="#f04137" d="M13.867 21.25c.625 0 1.133.508 1.133 1.133v.234c0 .625-.508 1.133-1.133 1.133H11.25v5.117c0 .625-.508 1.133-1.133 1.133h-.234a1.134 1.134 0 0 1-1.133-1.133v-3.984c0-.625-.508-1.133-1.133-1.133H6.133A1.134 1.134 0 0 1 5 22.617V21.25zM27.161 0A2.845 2.845 0 0 1 30 2.839V27.16A2.845 2.845 0 0 1 27.161 30h-5.573a2.845 2.845 0 0 1-2.838-2.839v-7.278c0-.625-.508-1.133-1.133-1.133H2.5v10.117C2.5 29.492 1.992 30 1.367 30h-.234A1.134 1.134 0 0 1 0 28.867V16.25h17.617c.625 0 1.133-.508 1.133-1.133v-1.484c0-.625-.508-1.133-1.133-1.133H2.84A2.845 2.845 0 0 1 0 9.661V0zM2.5 8.867C2.5 9.492 3.008 10 3.633 10h3.984c.625 0 1.133-.508 1.133-1.133V3.633c0-.625-.508-1.133-1.133-1.133H2.5v1.367C2.5 4.492 3.008 5 3.633 5h.234C4.492 5 5 5.508 5 6.133v.234C5 6.992 4.492 7.5 3.867 7.5H2.5zm16.25 0V3.633c0-.625-.508-1.133-1.133-1.133H11.25v1.367c0 .625.508 1.133 1.133 1.133h.234c.625 0 1.133.508 1.133 1.133v.234c0 .625-.508 1.133-1.133 1.133H11.25v1.367c0 .625.508 1.133 1.133 1.133h5.234c.625 0 1.133-.508 1.133-1.133zm8.75 17.487V19.87c0-.625-.508-1.133-1.133-1.133H21.25v1.367c0 .625.508 1.133 1.133 1.133h.234c.625 0 1.133.508 1.133 1.133v.234c0 .625-.508 1.133-1.133 1.133H21.25v2.617c0 .625.508 1.133 1.133 1.133h3.984c.625 0 1.133-.508 1.133-1.133zm0-11.237V3.633c0-.625-.508-1.133-1.133-1.133H21.25v3.867c0 .625.508 1.133 1.133 1.133h.234c.625 0 1.133.508 1.133 1.133v.234c0 .625-.508 1.133-1.133 1.133H21.25v5.117c0 .625.508 1.133 1.133 1.133h3.984c.625 0 1.133-.508 1.133-1.133z"/></g></g></svg>