<svg width="142" height="51" viewBox="0 0 142 51" fill="none" xmlns="http://www.w3.org/2000/svg">
<path fill-rule="evenodd" clip-rule="evenodd" d="M10.5617 20.995C11.0284 20.696 11.2618 20.2314 11.2618 19.6012C11.2618 18.3581 10.3358 17.7353 8.48391 17.7353H4.41274V21.4448H8.48391C9.40241 21.4472 10.095 21.2965 10.5617 20.995ZM4.41522 11.6708V15.2072H7.88317C8.74457 15.2072 9.39745 15.0565 9.8418 14.7574C10.2862 14.4584 10.5096 14.0136 10.5096 13.4279C10.5096 12.8422 10.2862 12.4023 9.8418 12.1082C9.39745 11.8166 8.74457 11.6683 7.88317 11.6683H4.41522V11.6708ZM14.0396 17.6192C14.5286 18.2543 14.7719 19.0377 14.7719 19.9669C14.7719 21.2817 14.258 22.2924 13.2328 22.9992C12.2051 23.706 10.7106 24.0594 8.74208 24.0594H0.947266V9.05371H8.31263C10.1496 9.05371 11.5596 9.40463 12.5427 10.104C13.5257 10.8034 14.0172 11.7548 14.0172 12.9559C14.0172 13.6849 13.841 14.3349 13.4885 14.9057C13.136 15.4766 12.6445 15.9288 12.0139 16.255C12.8778 16.5294 13.5505 16.9841 14.0396 17.6192Z" fill="white"/>
<path d="M20.9077 9.05859H17.4199V24.0643H20.9077V9.05859Z" fill="white"/>
<path fill-rule="evenodd" clip-rule="evenodd" d="M38.3071 9.05859V24.0643H35.4423L27.928 14.9526V24.0643H24.4824V9.05859H27.367L34.8614 18.1678V9.05859H38.3071Z" fill="white"/>
<path fill-rule="evenodd" clip-rule="evenodd" d="M47.372 18.1678L45.3488 20.2708V24.0643H41.8809V9.05859H45.3488V16.0672L52.0241 9.05859H55.8991L49.6533 15.7459L56.2665 24.0643H52.1953L47.372 18.1678Z" fill="white"/>
<path fill-rule="evenodd" clip-rule="evenodd" d="M69.4888 21.2766V24.0643H57.8164V9.05859H69.2083V11.8437H61.2844V15.1034H68.2823V17.8045H61.2844V21.2766H69.4888Z" fill="white"/>
<path fill-rule="evenodd" clip-rule="evenodd" d="M75.3858 11.8882H70.5625V9.05859H83.6995V11.8882H78.8761V24.0643H75.3858V11.8882Z" fill="white"/>
<path fill-rule="evenodd" clip-rule="evenodd" d="M11.1312 33.9513H14.3186V40.0406C13.4994 40.6559 12.5536 41.1279 11.4763 41.4541C10.3989 41.7828 9.31655 41.9484 8.22428 41.9484C6.66035 41.9484 5.25282 41.6173 4.00416 40.9525C2.75549 40.2877 1.77493 39.3659 1.06496 38.1871C0.354985 37.0083 0 35.6763 0 34.1886C0 32.7033 0.354985 31.3688 1.06496 30.19C1.77493 29.0112 2.76294 28.0894 4.0265 27.4246C5.29005 26.7599 6.71 26.4287 8.2913 26.4287C9.61195 26.4287 10.811 26.6511 11.8883 27.0935C12.9657 27.5358 13.8693 28.1809 14.6016 29.0236L12.3625 31.0821C11.2851 29.9528 9.9868 29.3893 8.46507 29.3893C7.50437 29.3893 6.64794 29.5895 5.90321 29.9898C5.156 30.3902 4.57511 30.9536 4.15806 31.6827C3.74102 32.4117 3.53249 33.247 3.53249 34.191C3.53249 35.1202 3.74102 35.9481 4.15806 36.6771C4.57511 37.4062 5.15103 37.9746 5.8908 38.3823C6.63056 38.7901 7.47459 38.9927 8.42039 38.9927C9.42577 38.9927 10.3294 38.7777 11.1337 38.3502V33.9513H11.1312Z" fill="white"/>
<path fill-rule="evenodd" clip-rule="evenodd" d="M26.2671 30.1859C25.721 29.7361 24.9241 29.5113 23.8765 29.5113H21.0342V34.743H23.8765C24.9241 34.743 25.721 34.5156 26.2671 34.056C26.8132 33.5988 27.0863 32.9562 27.0863 32.1259C27.0863 31.2832 26.8132 30.6382 26.2671 30.1859ZM27.1509 41.6873L24.2439 37.5083H24.0726H21.0366V41.6873H17.5488V26.6816H24.0726C25.4082 26.6816 26.5675 26.9041 27.5505 27.3464C28.5336 27.7888 29.2907 28.419 29.8219 29.232C30.3532 30.0475 30.6188 31.0113 30.6188 32.1259C30.6188 33.2404 30.3507 34.2018 29.812 35.0099C29.2733 35.818 28.5087 36.4358 27.5183 36.8633L30.8993 41.6873H27.1509Z" fill="white"/>
<path fill-rule="evenodd" clip-rule="evenodd" d="M43.0887 38.3774C43.8061 37.9696 44.3696 37.4012 44.7792 36.6722C45.1888 35.9432 45.3924 35.1153 45.3924 34.1861C45.3924 33.2569 45.1888 32.429 44.7792 31.7C44.3696 30.9709 43.8061 30.4025 43.0887 29.9948C42.3713 29.587 41.567 29.3844 40.6758 29.3844C39.7846 29.3844 38.9828 29.587 38.2629 29.9948C37.5454 30.4025 36.9819 30.9709 36.5723 31.7C36.1627 32.429 35.9592 33.2569 35.9592 34.1861C35.9592 35.1153 36.1627 35.9432 36.5723 36.6722C36.9819 37.4012 37.5454 37.9696 38.2629 38.3774C38.9803 38.7852 39.7846 38.9878 40.6758 38.9878C41.567 38.9878 42.3713 38.7852 43.0887 38.3774ZM36.4457 40.9401C35.1896 40.2679 34.2066 39.3437 33.4966 38.1649C32.7866 36.9861 32.4316 35.6614 32.4316 34.1886C32.4316 32.7157 32.7866 31.3911 33.4966 30.2123C34.2066 29.0334 35.1896 28.1092 36.4457 27.437C37.7018 26.7648 39.1118 26.4287 40.6783 26.4287C42.2422 26.4287 43.6497 26.7648 44.8984 27.437C46.147 28.1092 47.1301 29.0334 47.8475 30.2123C48.5649 31.3911 48.9249 32.7181 48.9249 34.1886C48.9249 35.6614 48.5649 36.9861 47.8475 38.1649C47.1301 39.3437 46.147 40.2704 44.8984 40.9401C43.6497 41.6123 42.2422 41.9484 40.6783 41.9484C39.1118 41.9459 37.7018 41.6123 36.4457 40.9401Z" fill="white"/>
<path fill-rule="evenodd" clip-rule="evenodd" d="M53.2172 40.165C52.0182 38.9788 51.4199 37.2859 51.4199 35.084V26.6816H54.9077V34.9555C54.9077 37.6418 56.0273 38.9862 58.2665 38.9862C59.3562 38.9862 60.1903 38.6625 60.7638 38.01C61.3372 37.3601 61.6252 36.3419 61.6252 34.9555V26.6816H65.0708V35.084C65.0708 37.2859 64.47 38.9788 63.2735 40.165C62.0745 41.3512 60.3989 41.9443 58.2466 41.9443C56.0919 41.9443 54.4162 41.3512 53.2172 40.165Z" fill="white"/>
<path fill-rule="evenodd" clip-rule="evenodd" d="M77.2383 34.0461C77.7845 33.5963 78.0576 32.9562 78.0576 32.1284C78.0576 31.2856 77.7845 30.6382 77.2383 30.1884C76.6922 29.7386 75.8954 29.5137 74.8478 29.5137H72.0054V34.7232H74.8478C75.8978 34.7207 76.6922 34.4958 77.2383 34.0461ZM78.5193 27.3464C79.5023 27.7888 80.2595 28.419 80.7907 29.232C81.322 30.0475 81.5876 31.0113 81.5876 32.1259C81.5876 33.2256 81.322 34.1869 80.7907 35.0099C80.2595 35.8328 79.5023 36.4605 78.5193 36.8955C77.5362 37.3329 76.377 37.5504 75.0414 37.5504H72.0054V41.6873H68.5176V26.6816H75.0414C76.377 26.6816 77.5362 26.9041 78.5193 27.3464Z" fill="white"/>
<path fill-rule="evenodd" clip-rule="evenodd" d="M123.737 13.5991C128.756 13.5991 132.939 17.1503 133.895 21.8655C129.697 21.9496 126.321 25.3624 126.321 29.5611V33.9057C125.494 34.1182 124.628 34.2294 123.737 34.2294C121.262 34.2294 118.988 33.3644 117.206 31.9212C118.886 30.2284 120.038 28.0141 120.395 25.5428C121.001 26.771 122.27 27.6162 123.737 27.6162C125.792 27.6162 127.458 25.958 127.458 23.9118C127.458 21.8655 125.792 20.2073 123.737 20.2073C122.27 20.2073 121.001 21.0525 120.395 22.2807C120.04 19.8094 118.889 17.5951 117.206 15.9023C118.988 14.4665 121.259 13.5991 123.737 13.5991ZM127.398 34.6545C127.388 36.2534 126.088 37.5483 124.482 37.5582C124.474 37.5582 124.467 37.5582 124.462 37.5582V44.1813C125.497 44.1813 126.497 44.0182 127.431 43.7142C129.459 43.0568 131.189 41.7471 132.373 40.0345C133.155 38.9026 133.696 37.5953 133.927 36.1842C134.009 35.68 134.054 35.1611 134.054 34.6322V22.9381H134.024C131.698 22.948 129.655 24.1465 128.473 25.9555C127.796 26.9935 127.403 28.2316 127.403 29.5611V34.6125C127.403 34.6199 127.403 34.6273 127.403 34.6322C127.398 34.6421 127.398 34.6471 127.398 34.6545ZM109.071 13.5991C108.157 13.5991 107.271 13.7177 106.427 13.9376V21.307C107.102 20.6299 108.035 20.2098 109.071 20.2098C111.126 20.2098 112.792 21.868 112.792 23.9142C112.792 25.7776 111.409 27.3197 109.609 27.5792V34.2146C115.081 33.9353 119.432 29.4302 119.432 23.9142C119.432 18.2179 114.795 13.5991 109.071 13.5991ZM108.532 34.217C103.061 33.9378 98.709 29.4326 98.709 23.9167V20.0664V6.82031H98.7388C102.261 6.83514 105.136 9.5758 105.347 13.0331V23.9167C105.347 25.7801 106.73 27.3221 108.529 27.5816V34.217H108.532Z" fill="white"/>
<path fill-rule="evenodd" clip-rule="evenodd" d="M92.259 0H126.437C130.719 0 134.609 1.74226 137.429 4.54964C140.249 7.35703 141.999 11.2295 141.999 15.4925V35.5075C141.999 39.7705 140.249 43.643 137.429 46.4504C134.609 49.2577 130.719 51 126.437 51H106.332C102.05 51 98.1597 49.2577 95.3397 46.4504C92.5196 43.643 90.7695 39.7705 90.7695 35.5075V0H92.259ZM126.437 2.96555H93.7484V35.5075C93.7484 38.95 95.1659 42.0836 97.4473 44.3547C99.7286 46.6258 102.874 48.0369 106.334 48.0369H126.44C129.898 48.0369 133.045 46.6283 135.327 44.3547C137.608 42.0836 139.025 38.9525 139.025 35.5075V15.4925C139.025 12.05 137.608 8.91641 135.327 6.6453C133.043 4.37665 129.898 2.96555 126.437 2.96555Z" fill="white"/>
</svg>
