<svg width="107" height="40" viewBox="0 0 107 40" fill="none" xmlns="http://www.w3.org/2000/svg">
<path fill-rule="evenodd" clip-rule="evenodd" d="M7.95757 16.698C8.30924 16.4709 8.48507 16.118 8.48507 15.6394C8.48507 14.6953 7.78735 14.2224 6.39191 14.2224H3.32419V17.0396H6.39191C7.08402 17.0414 7.60591 16.9269 7.95757 16.698ZM3.32606 9.61651V12.3023H5.93924C6.58832 12.3023 7.08028 12.1878 7.41511 11.9607C7.74994 11.7336 7.91829 11.3958 7.91829 10.951C7.91829 10.5062 7.74994 10.1721 7.41511 9.94872C7.08028 9.72725 6.58832 9.61464 5.93924 9.61464H3.32606V9.61651ZM10.5782 14.1341C10.9467 14.6165 11.13 15.2115 11.13 15.9172C11.13 16.9157 10.7428 17.6833 9.9703 18.2201C9.19589 18.7569 8.06981 19.0253 6.58645 19.0253H0.712891V7.62891H6.26284C7.64706 7.62891 8.70954 7.89542 9.45028 8.42658C10.191 8.95773 10.5614 9.68033 10.5614 10.5925C10.5614 11.1462 10.4286 11.6398 10.163 12.0733C9.89735 12.5069 9.52697 12.8504 9.05185 13.0981C9.70281 13.3064 10.2097 13.6518 10.5782 14.1341Z" fill="#F04137"/>
<path d="M15.7531 7.63086H13.125V19.0272H15.7531V7.63086Z" fill="#F04137"/>
<path fill-rule="evenodd" clip-rule="evenodd" d="M28.8664 7.63086V19.0272H26.7077L21.0456 12.1072V19.0272H18.4492V7.63086H20.6228L26.27 14.549V7.63086H28.8664Z" fill="#F04137"/>
<path fill-rule="evenodd" clip-rule="evenodd" d="M35.6963 14.549L34.1718 16.1462V19.0272H31.5586V7.63086H34.1718V12.9537L39.2017 7.63086H42.1217L37.4153 12.7097L42.3985 19.0272H39.3308L35.6963 14.549Z" fill="#F04137"/>
<path fill-rule="evenodd" clip-rule="evenodd" d="M52.3598 16.9101V19.0272H43.5645V7.63086H52.1485V9.7461H46.1776V12.2217H51.4507V14.2731H46.1776V16.9101H52.3598Z" fill="#F04137"/>
<path fill-rule="evenodd" clip-rule="evenodd" d="M56.8044 9.77988H53.1699V7.63086H63.0689V9.77988H59.4344V19.0272H56.8044V9.77988Z" fill="#F04137"/>
<path fill-rule="evenodd" clip-rule="evenodd" d="M8.38759 26.5374H10.7894V31.162C10.1721 31.6294 9.45943 31.9879 8.6476 32.2356C7.83578 32.4852 7.02022 32.611 6.19717 32.611C5.01872 32.611 3.95811 32.3595 3.01722 31.8546C2.07632 31.3497 1.33745 30.6496 0.802469 29.7544C0.267489 28.8591 0 27.8475 0 26.7176C0 25.5896 0.267489 24.5761 0.802469 23.6808C1.33745 22.7856 2.08193 22.0855 3.03405 21.5806C3.98617 21.0757 5.05612 20.8242 6.24767 20.8242C7.24281 20.8242 8.14629 20.9931 8.95812 21.3291C9.76994 21.6651 10.4508 22.1549 11.0026 22.7949L9.31539 24.3584C8.50357 23.5006 7.52526 23.0727 6.37861 23.0727C5.6547 23.0727 5.00936 23.2247 4.44819 23.5288C3.88515 23.8328 3.44744 24.2608 3.13319 24.8144C2.81894 25.3681 2.66181 26.0025 2.66181 26.7195C2.66181 27.4252 2.81894 28.0539 3.13319 28.6076C3.44744 29.1613 3.88141 29.593 4.43884 29.9027C4.99627 30.2123 5.63226 30.3662 6.34494 30.3662C7.10252 30.3662 7.7834 30.203 8.38946 29.8783V26.5374H8.38759Z" fill="#F04137"/>
<path fill-rule="evenodd" clip-rule="evenodd" d="M19.794 23.679C19.3825 23.3374 18.7821 23.1666 17.9927 23.1666H15.8509V27.1399H17.9927C18.7821 27.1399 19.3825 26.9673 19.794 26.6182C20.2055 26.2709 20.4113 25.783 20.4113 25.1523C20.4113 24.5123 20.2055 24.0224 19.794 23.679ZM20.4599 32.4139L18.2695 29.2401H18.1404H15.8527V32.4139H13.2246V21.0176H18.1404C19.1468 21.0176 20.0204 21.1865 20.7611 21.5225C21.5018 21.8584 22.0724 22.337 22.4727 22.9545C22.873 23.5739 23.0731 24.3059 23.0731 25.1523C23.0731 25.9988 22.8711 26.7289 22.4652 27.3426C22.0593 27.9564 21.4831 28.4256 20.7368 28.7503L23.2845 32.4139H20.4599V32.4139Z" fill="#F04137"/>
<path fill-rule="evenodd" clip-rule="evenodd" d="M32.4698 29.8989C33.0104 29.5892 33.435 29.1575 33.7436 28.6039C34.0523 28.0502 34.2056 27.4214 34.2056 26.7157C34.2056 26.01 34.0523 25.3813 33.7436 24.8276C33.435 24.2739 33.0104 23.8422 32.4698 23.5325C31.9292 23.2229 31.3231 23.069 30.6516 23.069C29.9801 23.069 29.3759 23.2229 28.8334 23.5325C28.2928 23.8422 27.8682 24.2739 27.5596 24.8276C27.2509 25.3813 27.0975 26.01 27.0975 26.7157C27.0975 27.4214 27.2509 28.0502 27.5596 28.6039C27.8682 29.1575 28.2928 29.5892 28.8334 29.8989C29.374 30.2086 29.9801 30.3625 30.6516 30.3625C31.3231 30.3625 31.9292 30.2086 32.4698 29.8989ZM27.4642 31.8452C26.5176 31.3347 25.7769 30.6328 25.2419 29.7375C24.7069 28.8422 24.4395 27.8362 24.4395 26.7176C24.4395 25.599 24.7069 24.593 25.2419 23.6977C25.7769 22.8024 26.5176 22.1005 27.4642 21.59C28.4107 21.0795 29.4731 20.8242 30.6535 20.8242C31.8319 20.8242 32.8925 21.0795 33.8334 21.59C34.7743 22.1005 35.515 22.8024 36.0556 23.6977C36.5962 24.593 36.8674 25.6009 36.8674 26.7176C36.8674 27.8362 36.5962 28.8422 36.0556 29.7375C35.515 30.6328 34.7743 31.3366 33.8334 31.8452C32.8925 32.3557 31.8319 32.611 30.6535 32.611C29.4731 32.6091 28.4107 32.3557 27.4642 31.8452Z" fill="#F04137"/>
<path fill-rule="evenodd" clip-rule="evenodd" d="M40.0984 31.2578C39.1949 30.3569 38.7441 29.0712 38.7441 27.399V21.0176H41.3723V27.3013C41.3723 29.3415 42.2159 30.3625 43.9032 30.3625C44.7243 30.3625 45.3528 30.1167 45.7849 29.6212C46.217 29.1276 46.434 28.3543 46.434 27.3013V21.0176H49.0304V27.399C49.0304 29.0712 48.5777 30.3569 47.6761 31.2578C46.7726 32.1587 45.51 32.6092 43.8882 32.6092C42.2645 32.6092 41.0019 32.1587 40.0984 31.2578Z" fill="#F04137"/>
<path fill-rule="evenodd" clip-rule="evenodd" d="M58.2002 26.6106C58.6117 26.2691 58.8175 25.783 58.8175 25.1542C58.8175 24.5142 58.6117 24.0224 58.2002 23.6809C57.7887 23.3393 57.1882 23.1685 56.3988 23.1685H54.257V27.1249H56.3988C57.1901 27.123 57.7887 26.9522 58.2002 26.6106ZM59.1654 21.5225C59.9061 21.8584 60.4767 22.337 60.877 22.9545C61.2773 23.5739 61.4774 24.3059 61.4774 25.1523C61.4774 25.9875 61.2773 26.7176 60.877 27.3426C60.4767 27.9676 59.9061 28.4443 59.1654 28.7747C58.4247 29.1069 57.5511 29.272 56.5447 29.272H54.257V32.4139H51.6289V21.0176H56.5447C57.5511 21.0176 58.4247 21.1865 59.1654 21.5225Z" fill="#F04137"/>
<path fill-rule="evenodd" clip-rule="evenodd" d="M93.2399 11.0819C97.0221 11.0819 100.174 13.7789 100.894 17.36C97.7311 17.4238 95.1871 20.0158 95.1871 23.2046V26.5041C94.5642 26.6655 93.9114 26.75 93.2399 26.75C91.3749 26.75 89.6615 26.0931 88.3184 24.997C89.5848 23.7113 90.4527 22.0297 90.7221 20.1528C91.1785 21.0856 92.1344 21.7275 93.2399 21.7275C94.7887 21.7275 96.0438 20.4681 96.0438 18.9141C96.0438 17.36 94.7887 16.1006 93.2399 16.1006C92.1344 16.1006 91.1785 16.7425 90.7221 17.6753C90.4546 15.7984 89.5867 14.1168 88.3184 12.8311C89.6615 11.7406 91.373 11.0819 93.2399 11.0819ZM95.9989 27.0728C95.9915 28.2872 95.0113 29.2707 93.801 29.2782C93.7954 29.2782 93.7898 29.2782 93.7861 29.2782V34.3082C94.5661 34.3082 95.3199 34.1843 96.0233 33.9534C97.5515 33.4542 98.8553 32.4595 99.7475 31.1588C100.337 30.2992 100.745 29.3063 100.919 28.2346C100.98 27.8517 101.014 27.4576 101.014 27.0559V18.1746H100.991C99.2388 18.1821 97.6993 19.0924 96.8089 20.4662C96.2982 21.2545 96.0027 22.1948 96.0027 23.2046V27.0409C96.0027 27.0466 96.0027 27.0522 96.0027 27.0559C95.9989 27.0634 95.9989 27.0672 95.9989 27.0728ZM82.1886 11.0819C81.5002 11.0819 80.8324 11.172 80.1964 11.339V16.9358C80.7052 16.4216 81.4086 16.1025 82.1886 16.1025C83.7374 16.1025 84.9926 17.3619 84.9926 18.9159C84.9926 20.3311 83.9506 21.5023 82.5945 21.6993V26.7387C86.7172 26.5267 89.9963 23.1051 89.9963 18.9159C89.9963 14.5897 86.5021 11.0819 82.1886 11.0819ZM81.7827 26.7406C77.66 26.5285 74.3809 23.107 74.3809 18.9178V15.9936V5.93359H74.4033C77.0576 5.94485 79.2237 8.02631 79.3827 10.6521V18.9178C79.3827 20.333 80.4246 21.5041 81.7808 21.7012V26.7406H81.7827Z" fill="#F04137"/>
<path fill-rule="evenodd" clip-rule="evenodd" d="M69.5188 0.751953H95.2727C98.4994 0.751953 101.431 2.07515 103.556 4.20728C105.68 6.33941 106.999 9.28047 106.999 12.5181V27.7189C106.999 30.9565 105.68 33.8975 103.556 36.0297C101.431 38.1618 98.4994 39.485 95.2727 39.485H80.123C76.8963 39.485 73.9651 38.1618 71.8402 36.0297C69.7152 33.8975 68.3965 30.9565 68.3965 27.7189V0.751953H69.5188ZM95.2727 3.0042H70.6412V27.7189C70.6412 30.3334 71.7092 32.7132 73.4283 34.4381C75.1473 36.1629 77.5173 37.2346 80.1249 37.2346H95.2746C97.8803 37.2346 100.252 36.1648 101.971 34.4381C103.69 32.7132 104.758 30.3352 104.758 27.7189V12.5181C104.758 9.90359 103.69 7.52371 101.971 5.79887C100.25 4.0759 97.8803 3.0042 95.2727 3.0042Z" fill="#F04137"/>
</svg>
