<svg width="14" height="10" viewBox="0 0 14 10" fill="none" xmlns="http://www.w3.org/2000/svg">
<path d="M7 5.53125L2.75 9.78125C2.60417 9.92708 2.42708 10 2.21875 10C2.01042 10 1.83333 9.92708 1.6875 9.78125L1 9.0625C0.854167 8.91667 0.78125 8.73958 0.78125 8.53125C0.78125 8.32292 0.854167 8.14583 1 8L4 5L1 2C0.854167 1.85417 0.78125 1.67708 0.78125 1.46875C0.78125 1.26042 0.854167 1.08333 1 0.9375L1.6875 0.21875C1.83333 0.0729167 2.01042 0 2.21875 0C2.42708 0 2.60417 0.0729167 2.75 0.21875L7 4.46875C7.14583 4.61458 7.21875 4.79167 7.21875 5C7.21875 5.20833 7.14583 5.38542 7 5.53125ZM13 4.46875C13.1458 4.61458 13.2188 4.79167 13.2188 5C13.2188 5.20833 13.1458 5.38542 13 5.53125L8.75 9.78125C8.60417 9.92708 8.42708 10 8.21875 10C8.01042 10 7.83333 9.92708 7.6875 9.78125L7 9.0625C6.85417 8.91667 6.78125 8.73958 6.78125 8.53125C6.78125 8.32292 6.85417 8.14583 7 8L10 5L7 2C6.85417 1.85417 6.78125 1.67708 6.78125 1.46875C6.78125 1.26042 6.85417 1.08333 7 0.9375L7.6875 0.21875C7.77083 0.15625 7.85417 0.104167 7.9375 0.0625C8.04167 0.0208333 8.13542 0 8.21875 0C8.32292 0 8.41667 0.0208333 8.5 0.0625C8.60417 0.104167 8.6875 0.15625 8.75 0.21875L13 4.46875Z" fill="#232D32"/>
</svg>
